<?xml version="1.0" encoding="utf-8"?>
<!-- Generator: Adobe Illustrator 17.1.0, SVG Export Plug-In . SVG Version: 6.00 Build 0)  -->
<!DOCTYPE svg PUBLIC "-//W3C//DTD SVG 1.1//EN" "http://www.w3.org/Graphics/SVG/1.1/DTD/svg11.dtd">
<svg version="1.1" id="图层_1" xmlns="http://www.w3.org/2000/svg" xmlns:xlink="http://www.w3.org/1999/xlink" x="0px" y="0px"
	 viewBox="0 0 208.1 208.2" enable-background="new 0 0 208.1 208.2" xml:space="preserve">
<g>
	<path fill="#F6D645" d="M208.1,91.1c0,37.8,0,75.7,0.1,113.5c0,3-0.6,3.6-3.6,3.6c-67-0.1-134-0.1-201,0c-3,0-3.6-0.6-3.6-3.6
		c0.1-36.5,0.1-73,0.1-109.5c3.2-0.3,6.3-0.3,9.4-0.9c3.1-0.5,4.4,0.9,5.3,3.6c5.5,17.2,17.6,26.9,34.8,30.5
		c11.2,2.3,22.2,0.8,32.6-4.1c10.4-5,17.7-13.1,21.6-24c0.5,0.2,0.7,0.2,0.8,0.3c0.5,0.7,1,1.3,1.4,2c10.3,16.4,24.6,25.5,44.4,23.6
		c15-1.4,27.1-7.6,35.1-21.2c2.6-4.4,2.9-11,7.2-13C197.1,89.9,202.9,91.2,208.1,91.1z M120.4,184.8c15,0,31.8-16,31.7-30.3
		c-0.1-5.2-1.2-6-5.9-4.1c-2,0.8-4,1.6-5.9,2.6c-14.2,7.8-29.7,10.9-45.5,13.1c-2.1,0.3-4.8-0.2-5.6,2.3c-0.8,2.4,1.1,4.2,2.8,5.9
		C99.9,182.2,110,183.9,120.4,184.8z"/>
	<path fill="#F6D645" d="M0.1,70.1c0-22.3,0-44.6,0-66.9C0,0.9,0.2,0,3,0c67.4,0.1,134.8,0.1,202.2,0c2.7,0,3,0.9,2.9,3.2
		c-0.1,21,0,41.9,0,62.9c-4.2,1.1-8.6,0.7-12.9,1.2c-3.3,0.3-4.6-0.9-5.7-3.9c-3.1-8.4-7.3-15.9-15.4-21.1c-14-9-28.5-10.3-43.9-5.4
		c-10.7,3.4-18.9,10.1-24.5,20c-0.7,1.3-1.4,3.5-3.3,3.1c-1.2-0.2-2.8-1.2-3.2-2.9c-1.3-5.5-5-9.3-9.1-12.6
		c-12.9-10.3-27.6-10.6-42.6-6.8C34.2,41,23.1,48.2,18.1,61.5c-2.4,6.4-6.3,8.2-12.1,8.5C4.1,70.1,2.1,70.1,0.1,70.1z"/>
	<path fill="#191007" d="M0.1,70.1c2,0,4,0,6-0.1c5.8-0.3,9.7-2.1,12.1-8.5c4.9-13.4,16-20.5,29.3-23.8c15-3.8,29.8-3.5,42.6,6.8
		c4.1,3.3,7.8,7.1,9.1,12.6c0.4,1.6,2,2.6,3.2,2.9c1.9,0.4,2.6-1.9,3.3-3.1c5.6-9.9,13.8-16.6,24.5-20c15.4-4.9,29.9-3.6,43.9,5.4
		c8.1,5.2,12.3,12.7,15.4,21.1c1.1,3,2.4,4.3,5.7,3.9c4.3-0.5,8.6-0.1,12.9-1.2c0,8.3,0,16.7,0,25c-5.2,0.1-11-1.2-15.3,0.7
		c-4.4,2-4.6,8.6-7.2,13c-8,13.6-20.1,19.8-35.1,21.2c-19.9,1.9-34.2-7.1-44.4-23.6c-0.4-0.7-0.9-1.4-1.4-2
		c-0.1-0.1-0.3-0.1-0.8-0.3c-3.9,10.9-11.2,19-21.6,24c-10.3,4.9-21.4,6.5-32.6,4.1c-17.2-3.6-29.4-13.3-34.8-30.5
		c-0.9-2.7-2.2-4.1-5.3-3.6c-3.1,0.5-6.3,0.6-9.4,0.9C0.1,86.7,0.1,78.4,0.1,70.1z M182.9,82.3c1.4-9-1.1-17.1-5.6-24.7
		c-2.4-4.1-5.4-7.8-9.7-9.9c-15.5-7.5-30.9-7.2-45.2,2.7c-7.2,5-10.8,13-14.2,21.9c1.4-0.6,1.9-0.8,2.2-1
		c13.2-7.6,21.6-3.2,22.8,11.7c0,0.3,0.2,0.6,0.2,1c-5.7,2.7-12.2,2.6-18.1,5c-3.6,1.5-4,3-2.3,6.3c5.4,10.8,13.5,18.5,25.6,20.7
		C163,120.5,182.5,104.3,182.9,82.3z M49.1,86.2c-5.9,1.1-11.8,2.1-17.7,3.2c-8.3,1.5-9.4,3.6-5.5,11.1c7.4,14.4,23.7,22,41.1,18.6
		c17.3-3.3,29.8-15.3,28.7-32.6c1-4,0.7-8,0.2-11.9c-1.6-12.1-6.4-22.3-18.4-27.5c-5.1-2.3-10.7-2.3-16.1-2.4
		c-10.7-0.1-20.4,3-28.2,10.3c-4.1,3.8-7.2,8.3-8.2,14.3C41.5,65.5,49.8,71.4,49.1,86.2z M26.5,73.4c-3,1-3,3.5-3.1,6
		c-0.1,2.7,1.4,3.5,3.7,3.3c2.9-0.2,3.9-2.2,3.8-4.8C30.8,75.2,28.8,74.1,26.5,73.4z M118.4,78.6c-0.1-2.7-1.2-4.4-4.1-4.4
		c-3.1,0-4.4,1.7-4.3,4.7c0.1,2.9,1.4,4.2,4.3,4.1C117.2,82.9,118.5,81.4,118.4,78.6z"/>
	<path fill="#191007" d="M120.4,184.8c-10.4-1-20.4-2.7-28.3-10.5c-1.7-1.7-3.6-3.5-2.8-5.9c0.8-2.5,3.5-2,5.6-2.3
		c15.8-2.2,31.3-5.3,45.5-13.1c1.9-1,3.9-1.8,5.9-2.6c4.6-1.9,5.8-1.1,5.9,4.1C152.2,168.8,135.4,184.9,120.4,184.8z M146.4,155.8
		c-7.6,4.2-14.7,7.1-22,9.2c-7.5,2.2-15,3.8-22.7,5.1c-1.6,0.3-3.8,0.2-4.1,1.9c-0.2,1.4,1.8,2.2,3,3c4.8,3.1,10.2,4,15.7,2.8
		c3.7-0.8,1.7-4.8,3.1-7.7c1.9,4.7,4.7,6.3,9.4,4.4c4.3-1.8,6-5.1,6.1-9.4c1.8,0.3,1.9,1.2,1.9,2c0.1,1.2,0.2,2.5,1.5,2.9
		c1.7,0.5,2.3-1.1,2.9-2.1C143.7,164.5,145.8,161.2,146.4,155.8z"/>
	<path fill="#F9FBF6" d="M49.1,86.2c0.6-14.7-7.7-20.7-24.1-16.8c1-6,4.1-10.6,8.2-14.3c7.9-7.3,17.6-10.5,28.2-10.3
		c5.4,0.1,11,0.1,16.1,2.4c12,5.3,16.8,15.4,18.4,27.5c0.5,3.9,0.9,8-0.2,11.9c-4.5-0.1-8.9-0.4-13.4-0.4
		C71.3,86.1,60.2,86.1,49.1,86.2z"/>
	<path fill="#F9FBF6" d="M133.5,84c-0.1-0.3-0.2-0.6-0.2-1c-1.1-15-9.6-19.3-22.8-11.7c-0.4,0.2-0.8,0.4-2.2,1
		c3.4-8.9,6.9-16.9,14.2-21.9c14.3-9.9,29.7-10.1,45.2-2.7c4.3,2.1,7.3,5.8,9.7,9.9c4.4,7.6,6.9,15.7,5.6,24.7
		c-12,0-24.1-1-36.1,0.8C142.4,83.8,138,84.5,133.5,84z"/>
	<path fill="#F6D645" d="M49.1,86.2c11.1,0,22.2-0.1,33.3,0c4.5,0,8.9,0.2,13.4,0.4c1.1,17.3-11.4,29.2-28.7,32.6
		c-17.4,3.4-33.7-4.3-41.1-18.6c-3.9-7.5-2.8-9.5,5.5-11.1C37.4,88.3,43.2,87.2,49.1,86.2z"/>
	<path fill="#F6D645" d="M133.5,84c4.5,0.5,8.9-0.2,13.3-0.9c12-1.8,24.1-0.9,36.1-0.8c-0.5,22-20,38.2-44.2,33.7
		c-12.1-2.2-20.2-9.9-25.6-20.7c-1.6-3.2-1.3-4.8,2.3-6.3C121.3,86.6,127.8,86.7,133.5,84z"/>
	<path fill="#F9FBF6" d="M26.5,73.4c2.3,0.8,4.3,1.8,4.4,4.6c0.1,2.6-0.9,4.6-3.8,4.8c-2.3,0.2-3.8-0.7-3.7-3.3
		C23.5,76.9,23.4,74.4,26.5,73.4z"/>
	<path fill="#F9FBF6" d="M118.4,78.6c0,2.8-1.2,4.3-4.1,4.4c-2.9,0.1-4.2-1.2-4.3-4.1c-0.1-3.1,1.1-4.7,4.3-4.7
		C117.3,74.2,118.4,75.9,118.4,78.6z"/>
	<path fill="#F9FBF6" d="M146.4,155.8c-0.6,5.4-2.8,8.7-5,12c-0.7,1-1.2,2.7-2.9,2.1c-1.3-0.4-1.4-1.7-1.5-2.9
		c-0.1-0.8-0.2-1.7-1.9-2c-0.1,4.3-1.8,7.6-6.1,9.4c-4.7,1.9-7.4,0.3-9.4-4.4c-1.4,2.9,0.6,6.9-3.1,7.7c-5.5,1.2-10.9,0.4-15.7-2.8
		c-1.2-0.8-3.2-1.6-3-3c0.3-1.7,2.5-1.6,4.1-1.9c7.7-1.3,15.2-2.9,22.7-5.1C131.8,162.8,138.8,160,146.4,155.8z"/>
</g>
</svg>
